<?xml version="1.0" standalone="no"?>
<!DOCTYPE svg PUBLIC "-//W3C//DTD SVG 20010904//EN"
 "http://www.w3.org/TR/2001/REC-SVG-20010904/DTD/svg10.dtd">
<svg version="1.0" xmlns="http://www.w3.org/2000/svg"
 width="400.000000pt" height="400.000000pt" viewBox="0 0 400.000000 400.000000"
 preserveAspectRatio="xMidYMid meet">
<metadata>
Created by potrace 1.14, written by Peter Selinger 2001-2017
</metadata>
<g transform="translate(0.000000,400.000000) scale(0.100000,-0.100000)"
fill="#000000" stroke="none">
<path d="M1134 3036 c-552 -552 -854 -861 -854 -873 0 -11 13 -34 29 -51 l30
-30 -30 -31 c-16 -17 -29 -39 -29 -50 0 -21 265 -291 286 -291 29 0 42 29 42
97 0 80 -7 94 -66 151 l-44 43 758 758 759 758 757 -757 758 -757 -61 -62
c-45 -44 -61 -69 -61 -88 l-1 -27 -14 30 c-21 40 -52 73 -88 92 -26 14 -77 16
-360 17 l-330 0 -2 130 c-1 72 -4 145 -7 163 -7 46 -49 98 -99 124 -41 21 -51
21 -497 21 -485 0 -492 -1 -547 -50 -47 -42 -60 -96 -59 -245 0 -76 -1 -139
-4 -139 -3 -1 -149 -2 -325 -3 -316 -2 -321 -2 -362 -25 -52 -30 -93 -100 -93
-162 l0 -43 678 -679 c372 -373 686 -682 697 -687 11 -4 27 -4 35 0 9 5 310
303 670 664 360 360 664 656 675 658 12 2 21 12 23 27 l4 23 14 -21 c9 -12 23
-21 33 -21 25 0 301 278 301 303 0 10 -15 33 -34 50 l-34 31 27 26 c32 30 42
52 31 70 -5 7 -390 395 -857 862 -638 638 -854 848 -871 848 -18 0 -235 -212
-878 -854z m1216 -981 l0 -90 -345 0 -345 0 2 90 1 90 343 0 344 0 0 -90z"/>
<path d="M636 1647 c-15 -11 -17 -74 -17 -666 0 -646 0 -653 21 -697 22 -44
50 -69 103 -92 20 -9 334 -12 1271 -12 l1243 0 53 28 c40 20 59 38 77 71 l23
44 0 649 c0 429 -4 656 -10 669 -6 10 -20 19 -31 19 -13 0 -245 -225 -686
-665 -366 -366 -670 -664 -675 -663 -5 2 -304 298 -666 659 -361 361 -664 658
-674 662 -9 3 -23 0 -32 -6z"/>
</g>
</svg>
